# AST/ASF file generated using VICON BodyLanguage
# -----------------------------------------------
:version 1.10
:name VICON
:units
  mass 1.0
  length 0.45
  angle deg
:documentation
   .ast/.asf automatically generated from VICON data using
   VICON BodyBuilder and BodyLanguage model FoxedUp or BRILLIANT.MOD
:root
   order TX TY TZ RX RY RZ
   axis XYZ
   position 0 0 0  
   orientation 0 0 0 
:bonedata
  begin
     id 1 
     name lhipjoint
     direction 0.566809 -0.746272 0.349008 
     length 2.40479 
     axis 0 0 0  XYZ
  end
  begin
     id 2 
     name lfemur
     direction 0.34202 -0.939693 0  
     length 7.1578  
     axis 0 0 20  XYZ
    dof rx ry rz
    limits (-160.0 20.0)
           (-70.0 70.0)
           (-60.0 70.0)
  end
  begin
     id 3 
     name ltibia
     direction 0.34202 -0.939693 0   
     length 7.49137   
     axis 0 0 20   XYZ
    dof rx
    limits (-10.0 170.0)
  end
  begin
     id 4 
     name lfoot
     direction 0.0665746 -0.182912 0.980873   
     length 2.36784   
     axis -90 7.62852e-016 20   XYZ
    dof rx rz
    limits (-45.0 90.0)
           (-70.0 20.0)
  end
  begin
     id 5 
     name ltoes
     direction 1.53601e-011 -4.22058e-011 1   
     length 1.18966   
     axis -90 7.62852e-016 20   XYZ
    dof rx
    limits (-90.0 20.0)
  end
  begin
     id 6 
     name rhipjoint
     direction -0.550236 -0.756381 0.353735   
     length 2.37265  
     axis 0 0 0  XYZ 
  end
  begin
     id 7 
     name rfemur
     direction -0.34202 -0.939693 0   
     length 7.43386   
     axis 0 0 -20   XYZ
    dof rx ry rz
    limits (-160.0 20.0)
           (-70.0 70.0)
           (-70.0 60.0)
  end
  begin
     id 8 
     name rtibia
     direction -0.34202 -0.939693 0   
     length 7.50908   
     axis 0 0 -20   XYZ
    dof rx
    limits (-10.0 170.0)
 end
 begin
     id 9 
     name rfoot
     direction -0.0683029 -0.187661 0.979856   
     length 2.41173  
     axis -90 -7.62852e-016 -20   XYZ
    dof rx rz
    limits (-45.0 90.0)
           (-20.0 70.0)
  end
  begin
     id 10 
     name rtoes
     direction -1.53528e-011 -4.21968e-011 1   
     length 1.21082   
     axis -90 -7.62852e-016 -20   XYZ
    dof rx
    limits (-90.0 20.0)
  end
  begin
     id 11 
     name lowerback
     direction 0.013823 0.995423 -0.0945635   
     length 2.04495   
     axis 0 0 0   XYZ
    dof rx ry rz
    limits (-20.0 45.0)
           (-30.0 30.0)
           (-30.0 30.0)
  end
  begin
     id 12 
     name upperback
     direction 0.0276657 0.9994 -0.020853   
     length 2.05008   
     axis 0 0 0   XYZ
    dof rx ry rz
    limits (-20.0 45.0)
           (-30.0 30.0)
           (-30.0 30.0)
  end
  begin
     id 13 
     name thorax
     direction 0.019782 0.999531 0.0233827   
     length 2.06488   
     axis 0 0 0   XYZ
    dof rx ry rz
    limits (-20.0 45.0)
           (-30.0 30.0)
           (-30.0 30.0)
  end
  begin
     id 14 
     name lowerneck
     direction -0.0308541 0.994709 0.0979874   
     length 1.75553   
     axis 0 0 0   XYZ
    dof rx ry rz
    limits (-20.0 45.0)
           (-30.0 30.0)
           (-30.0 30.0)
  end
  begin
     id 15 
     name upperneck
     direction 0.0588398 0.995804 -0.0700903   
     length 1.76878   
     axis 0 0 0   XYZ
    dof rx ry rz
    limits (-20.0 45.0)
           (-30.0 30.0)
           (-30.0 30.0)
  end
  begin
     id 16
     name head
     direction 0.0209966 0.999159 -0.0352225  
     length 1.77193  
     axis 0 0 0   XYZ
    dof rx ry rz
    limits (-20.0 45.0)
           (-30.0 30.0)
           (-30.0 30.0)
  end
  begin
     id 17 
     name lclavicle
     direction 0.938182 0.335073 -0.0868338  
     length 3.58396  
     axis 0 0 0   XYZ
    dof ry rz
    limits (-20.0 10.0)
           (0.0 20.0)
  end
  begin
     id 18 
     name lhumerus
     direction 1 -4.48971e-011 -1.26313e-017   
     length 4.983   
     axis 180 -30 -90   XYZ
    dof rx ry rz
    limits (-60.0 90.0)
           (-90.0 90.0)
           (-90.0 90.0)
  end
  begin
     id 19
     name lradius
     direction 1 -4.48948e-011 -5.89033e-027   
     length 3.48356   
     axis 180 -30 -90   XYZ
    dof rx
    limits (-10.0 170.0)
  end
  begin
     id 20
     name lwrist
     direction 1 -4.48977e-011 -1.48983e-026   
     length 1.74178   
     axis 9.0955e-015 90 90   XYZ
    dof ry
    limits (-180.0 0.0)
 end
  begin
     id 21 
     name lhand
     direction 1 -4.49046e-011 -2.98066e-026   
     length 0.715259   
     axis 1.90115e-014 90 90   XYZ
    dof rx rz
    limits (-90.0 90.0)
           (-45.0 45.0)
  end
  begin
     id 22 
     name lfingers
     direction 1 -4.48907e-011 -5.95731e-026   
     length 0.576661   
     axis 3.80223e-014 90 90   XYZ
    dof rx
    limits (0.0 90.0)
  end
  begin
     id 23
     name lthumb
     direction 0.707107 -6.34963e-011 0.707107   
     length 0.827973   
     axis -90 45 -3.84942e-014   XYZ
    dof rx rz
    limits (-45.0 45.0)
           (-45.0 45.0)
  end
  begin
     id 24 
     name rclavicle
     direction -0.909637 0.398485 -0.11735   
     length 3.44819  
     axis 0 0 0   XYZ 
    dof ry rz
    limits (-10.0 20.0)
           (-20.0 0.0)
  end
  begin
     id 25 
     name rhumerus
     direction -1 -4.48978e-011 -1.09333e-027  
     length 5.2419   
     axis 180 30 90   XYZ
    dof rx ry rz
    limits (-90.0 60.0)
           (-90.0 90.0)
           (-90.0 90.0)
  end
  begin
     id 26 
     name rradius
     direction -1 -4.48953e-011 -7.61841e-027   
     length 3.44417   
     axis 180 30 90   XYZ
    dof rx
    limits (-10.0 170.0)
  end
  begin
     id 27 
     name rwrist
     direction -1 -4.48977e-011 -1.48983e-026   
     length 1.72209   
     axis 9.0955e-015 -90 -90   XYZ
    dof ry
    limits (-180.0 0.0)
  end
  begin
     id 28
     name rhand
     direction -1 -4.49027e-011 -2.98038e-026   
     length 0.622529   
     axis 1.90115e-014 -90 -90   XYZ
    dof rx rz
    limits (-90.0 90.0)
           (-45.0 45.0)
  end
  begin
     id 29
     name rfingers
     direction -1 -4.48838e-011 -5.95531e-026   
     length 0.501899   
     axis 3.80223e-014 -90 -90   XYZ
    dof rx
    limits (0.0 90.0)
  end
  begin
     id 30
     name rthumb
     direction -0.707107 -6.34937e-011 0.707107   
     length 0.720629   
     axis -90 -45 3.84942e-014   XYZ
    dof rx rz
    limits (-45.0 45.0)
           (-45.0 45.0)
  end
:hierarchy
  begin
    root lhipjoint rhipjoint lowerback
    lhipjoint lfemur
    lfemur ltibia
    ltibia lfoot
    lfoot ltoes
    rhipjoint rfemur
    rfemur rtibia
    rtibia rfoot
    rfoot rtoes
    lowerback upperback
    upperback thorax
    thorax lowerneck lclavicle rclavicle
    lowerneck upperneck
    upperneck head
    lclavicle lhumerus
    lhumerus lradius
    lradius lwrist
    lwrist lhand lthumb
    lhand lfingers
    rclavicle rhumerus
    rhumerus rradius
    rradius rwrist
    rwrist rhand rthumb
    rhand rfingers
  end

#!OML:ASF F:\VICON\USERDATA\Patient Classification 1\PLAYGROUND\JustinFriday\JustinFriday.ASF
:FULLY-SPECIFIED
:DEGREES
423
root -26.3531 19.9366 -8.05363 241.475 79.033 -136.034
lowerback 34.174 -0.739024 3.33141
upperback 5.56922 1.90893 6.14617
thorax -11.4332 1.12903 3.9877
lowerneck -6.9704 -3.16273 -4.08898
upperneck -22.0211 -2.09282 7.43077
head -5.34278 -0.707904 3.06211
rclavicle 6.36111e-015 1.27222e-014
rhumerus 32.354 12.7088 -71.6123
rradius 54.6887
rwrist 19.0043
rhand -32.0528 0.597151
rfingers 7.12502
rthumb -5.29971 -29.3166
lclavicle 6.36111e-015 1.27222e-014
lhumerus 57.4957 -1.48644 65.4783
lradius 48.3435
lwrist -23.1945
lhand -24.6252 -17.5039
lfingers 7.12502
lthumb 1.87357 12.4676
rfemur -57.4604 6.18557 33.5051
rtibia 63.4842
rfoot -39.0217 -12.9093
rtoes 24.1958
lfemur -25.1372 3.85715 -9.24925
ltibia 19.8151
lfoot 22.1998 17.0545
ltoes 8.95332
424
root -26.3202 20.0079 -8.04418 239.186 79.2318 -138.441
lowerback 34.0647 -0.731043 3.81101
upperback 5.559 2.00932 5.70875
thorax -11.3564 1.15098 3.21962
lowerneck -7.48245 -3.79593 -5.98171
upperneck -21.4819 -2.62167 9.40164
head -4.96811 -0.920601 4.00293
rclavicle -1.59028e-015 -1.78906e-014
rhumerus 31.6289 12.0503 -71.0479
rradius 55.2201
rwrist 18.411
rhand -32.635 -0.0261041
rfingers 7.12502
rthumb -5.86183 -29.925
lclavicle -1.59028e-015 -1.78906e-014
lhumerus 57.7449 -2.38599 65.254
lradius 48.4928
lwrist -23.048
lhand -24.7897 -17.1629
lfingers 7.12502
lthumb 1.7147 12.81
rfemur -56.9097 5.81326 33.0819
rtibia 62.4928
rfoot -39.3682 -12.1083
rtoes 25.0129
lfemur -26.3403 5.97851 -10.2268
ltibia 21.5838
lfoot 27.0499 -5.97246
ltoes -32.854
425
root -26.2839 20.0612 -8.02152 238.136 79.2102 -139.192
lowerback 34.4316 -0.68178 3.93832
upperback 5.66129 2.1291 5.5442
thorax -11.3714 1.20402 2.92502
lowerneck -6.39467 -3.82199 -4.56642
upperneck -23.2375 -2.74099 8.38268
head -5.74771 -1.03112 3.49514
rclavicle -4.09496e-014 -6.99722e-014
rhumerus 31.1562 11.7143 -71.2649
rradius 55.2043
rwrist 18.6346
rhand -33.462 -0.197451
rfingers 7.12502
rthumb -6.66021 -30.0727
lclavicle -4.09496e-014 -6.99722e-014
lhumerus 57.7605 -3.11795 64.1901
lradius 48.8574
lwrist -22.0921
lhand -24.7381 -16.4688
lfingers 7.12502
lthumb 1.7645 13.5037
rfemur -55.8949 5.40731 33.1306
rtibia 61.4
rfoot -39.8249 -10.2121
rtoes 28.0438
lfemur -27.281 8.91765 -10.9648
ltibia 23.5744
lfoot 12.7848 -25.0492
ltoes -47.1501
426
root -26.2497 20.1367 -7.98526 237.299 79.2959 -139.817
lowerback 34.8303 -0.70015 3.43371
upperback 5.70189 1.96479 5.58102
thorax -11.4987 1.14754 3.29856
lowerneck -5.86514 -3.26163 -3.66174
upperneck -24.1225 -2.07731 7.34453
head -6.20529 -0.707595 3.01589
rclavicle 1.35174e-014 -5.96354e-015
rhumerus 30.9531 12.5866 -71.4798
rradius 55.0617
rwrist 18.7825
rhand -34.3776 -0.180626
rfingers 7.12502
rthumb -7.54407 -30.0261
lclavicle 1.35174e-014 -5.96354e-015
lhumerus 56.961 -3.24455 61.8735
lradius 49.6695
lwrist -20.1975
lhand -25.2468 -14.6232
lfingers 7.12502
lthumb 1.27319 15.3528
rfemur -54.793 5.78323 32.9053
rtibia 60.215
rfoot -39.7583 -11.1816
rtoes 27.3746
lfemur -28.0407 9.0474 -10.7603
ltibia 25.5598
lfoot 19.319 -18.3299
ltoes -41.308
427
root -26.219 20.243 -7.97416 233.872 79.3874 -143.268
lowerback 34.9107 -1.19334 3.18442
upperback 5.72687 1.20865 5.26329
thorax -11.4596 0.80945 3.39528
lowerneck -6.35666 -2.65889 -2.42183
upperneck -23.8944 -1.39146 6.42409
head -6.12486 -0.402871 2.47502
rclavicle 7.95139e-016 -9.93923e-015
rhumerus 30.8284 13.785 -71.9249
rradius 55.2435
rwrist 18.5356
rhand -34.8624 -0.289323
rfingers 7.12502
rthumb -8.01196 -30.1175
lclavicle 7.95139e-016 -9.93923e-015
lhumerus 56.1476 -2.43559 61.1301
lradius 49.8987
lwrist -20.336
lhand -25.9821 -13.2996
lfingers 7.12502
lthumb 0.563035 16.6794
rfemur -53.9204 5.29294 32.4554
rtibia 58.9919
rfoot -39.6819 -11.4751
rtoes 27.0745
lfemur -29.0277 5.28458 -9.80259
ltibia 27.8749
lfoot 17.9064 15.206
ltoes 18.8859
428
root -26.1669 20.2672 -7.97227 232.905 79.4845 -143.848
lowerback 35.2784 -0.767014 3.79352
upperback 5.67692 2.02916 5.3819
thorax -11.6718 1.16435 2.86529
lowerneck -5.80309 -3.68267 -3.36552
upperneck -24.3889 -2.68954 7.12632
head -6.27834 -1.01539 2.91804
rclavicle -2.22639e-014 2.46493e-014
rhumerus 29.6368 11.8687 -71.7218
rradius 55.3418
rwrist 19.2295
rhand -34.8678 0.106534
rfingers 7.12502
rthumb -8.01716 -29.7214
lclavicle -2.22639e-014 2.46493e-014
lhumerus 56.7567 -3.77652 64.6914
lradius 49.0667
lwrist -22.5811
lhand -26.0588 -14.5266
lfingers 7.12502
lthumb 0.488994 15.4526
rfemur -52.8312 5.22125 32.2511
rtibia 57.9851
rfoot -40.1249 -9.89579
rtoes 29.613
lfemur -29.6372 6.82359 -10.8939
ltibia 30.2411
lfoot 16.3535 12.4894
ltoes 18.1963
429
root -26.146 20.2894 -7.94273 233.988 79.0485 -143.244
lowerback 34.7684 -0.37376 4.24585
upperback 5.56019 2.68244 5.61146
thorax -11.6225 1.44443 2.60891
lowerneck -6.33391 -3.75154 -4.43197
upperneck -23.4588 -2.78125 7.38716
head -5.85705 -0.98536 3.1569
rclavicle -1.59028e-015 1.66979e-014
rhumerus 28.9377 9.13792 -73.7455
rradius 55.0474
rwrist 21.7889
rhand -34.4463 1.06283
rfingers 7.12502
rthumb -7.61034 -28.7802
lclavicle -1.59028e-015 1.66979e-014
lhumerus 57.1349 -5.15733 66.9711
lradius 48.4543
lwrist -24.2218
lhand -25.8601 -16.7576
lfingers 7.12502
lthumb 0.680875 13.2211
rfemur -52.8103 5.25683 32.7645
rtibia 56.9662
rfoot -39.983 -9.36437
rtoes 29.9621
lfemur -31.7292 9.33848 -11.2107
ltibia 32.8414
lfoot 16.5214 7.37208
ltoes 12.443
430
root -26.1063 20.3502 -7.90417 235.471 78.6106 -141.719
lowerback 34.7183 -0.668532 4.2465
upperback 5.67927 2.30162 5.56549
thorax -11.4538 1.27822 2.71285
lowerneck -6.65791 -3.62334 -4.2792
upperneck -23.6547 -2.40871 8.14753
head -5.87248 -0.844352 3.36712
rclavicle -1.07344e-014 -5.28767e-014
rhumerus 28.6561 12.0292 -71.7789
rradius 55.8836
rwrist 18.8688
rhand -35.6238 -0.426049
rfingers 7.12502
rthumb -8.74682 -30.2248
lclavicle -1.07344e-014 -5.28767e-014
lhumerus 56.6312 -4.51816 66.3794
lradius 48.2933
lwrist -24.6058
lhand -25.9171 -17.8258
lfingers 7.12502
lthumb 0.625767 12.153
rfemur -51.9626 5.34307 33.4752
rtibia 55.8964
rfoot -39.6725 -9.93717
rtoes 28.6341
lfemur -33.0356 9.82138 -10.5893
ltibia 35.6345
lfoot 15.386 5.61738
ltoes 8.9759
431
root -26.0638 20.4023 -7.8765 236.747 78.3317 -140.38
lowerback 34.7041 -1.20314 4.40717
upperback 5.80523 1.63977 5.28
thorax -11.2628 0.975001 2.58635
lowerneck -6.711 -3.46678 -5.1486
upperneck -23.9127 -1.79185 9.98403
head -5.92678 -0.569727 4.10747
rclavicle 3.61788e-014 4.69132e-014
rhumerus 28.9504 13.3388 -72.6057
rradius 55.7481
rwrist 18.5261
rhand -35.9464 -0.317892
rfingers 7.12502
rthumb -9.05809 -30.1034
lclavicle 3.61788e-014 4.69132e-014
lhumerus 56.0696 -3.55129 64.9641
lradius 48.2033
lwrist -24.2656
lhand -26.6614 -16.6941
lfingers 7.12502
lthumb -0.0930629 13.2857
rfemur -51.033 5.3356 34.0912
rtibia 54.7035
rfoot -39.1875 -10.6361
rtoes 26.9699
lfemur -34.4131 10.8334 -10.275
ltibia 38.5574
lfoot 14.1582 3.92525
ltoes 3.5715
432
root -26.0234 20.4452 -7.87161 237.788 78.4323 -139.28
lowerback 34.6145 -1.28029 4.7865
upperback 5.89253 1.6184 4.9594
thorax -11.0968 0.953387 2.04948
lowerneck -6.68485 -3.18925 -4.0551
upperneck -24.3027 -1.57997 8.78168
head -6.1206 -0.471774 3.52968
rclavicle -1.59028e-014 -5.4467e-014
rhumerus 28.7982 11.5221 -75.334
rradius 54.98
rwrist 20.9122
rhand -35.4616 1.30543
rfingers 7.12502
rthumb -8.59029 -28.4998
lclavicle -1.59028e-014 -5.4467e-014
lhumerus 56.0442 -4.07832 65.4612
lradius 48.051
lwrist -25.1176
lhand -27.4728 -15.5674
lfingers 7.12502
lthumb -0.87673 14.4105
rfemur -50.155 4.94392 34.483
rtibia 53.5279
rfoot -38.681 -10.8365
rtoes 25.697
lfemur -35.7774 12.1523 -10.3982
ltibia 41.4445
lfoot 12.0476 3.82139
ltoes 9.4152
